Patient4_TMGait_0pt6_02_left_24_GRF.mot
version=1
nRows=26
nColumns=19
inDegrees=no
endheader
time	F1x	F1y	F1z	M1x	M1y	M1z	F2x	F2y	F2z	M2x	M2y	M2z	EC1x	EC1y	EC1z	EC2x	EC2y	EC2z
29.34	18.5293	-13.2753	4.0733	2.9815	1.68	-19.1719	-17.073	758.7258	-70.2426	306.7058	85.7825	813.1646	-0.0592	0.0182	-0.0073	-0.0462	0.0165	0.9585
29.3524	11.9509	-8.147	2.8869	1.7874	0.85869	-11.9792	-17.2796	743.0855	-67.1618	301.1254	80.9234	792.5513	-0.0592	0.0182	-0.0073	-0.0462	0.0165	0.9585
29.3649	6.3978	-3.7724	1.836	0.7781	0.18111	-5.8435	-16.5619	729.2803	-64.1415	296.1493	75.9233	773.2721	-0.0592	0.0182	-0.0073	-0.0462	0.0165	0.9585
29.3773	2.1569	-0.38123	0.99158	0.0017714	-0.31151	-1.0849	-14.9658	719.009	-61.2979	292.4619	71.0046	757.2842	-0.0592	0.0182	-0.0073	-0.0462	0.0165	0.9585
29.3897	-0.76577	2.011	0.38098	-0.54	-0.63366	2.2668	-12.6847	713.2131	-58.727	290.4758	66.3531	745.7054	-0.0592	0.0182	-0.0073	-0.0462	0.0165	0.9585
29.4021	-2.5945	3.5361	-0.023831	-0.87815	-0.82033	4.4141	-9.9167	712.0966	-56.4564	290.3077	62.0571	738.8356	-0.0592	0.0182	-0.0073	-0.0462	0.0165	0.9585
29.4146	-3.5803	4.3547	-0.25701	-1.0483	-0.92085	5.5832	-6.8401	715.1939	-54.5461	291.7931	58.2087	736.2547	-0.0592	0.0182	-0.0073	-0.0462	0.0165	0.9585
29.427	-4.007	4.6184	-0.35701	-1.0848	-0.98235	5.9997	-3.6173	721.5053	-53.0073	294.5418	54.8394	736.9854	-0.0592	0.0182	-0.0073	-0.0462	0.0165	0.9585
29.4394	-4.0952	4.4295	-0.36045	-1.0078	-1.0384	5.8163	-0.35027	729.7273	-51.8631	298.0291	51.9728	739.7321	-0.0592	0.0182	-0.0073	-0.0462	0.0165	0.9585
29.4519	-4.0144	3.8314	-0.2869	-0.81826	-1.1214	5.1061	2.8938	738.5231	-51.0576	301.7105	49.5476	743.1626	-0.0592	0.0182	-0.0073	-0.0462	0.0165	0.9585
29.4643	-3.89	2.8289	-0.16735	-0.5051	-1.2409	3.8972	6.0967	746.6863	-50.5459	305.0955	47.4983	746.0697	-0.0592	0.0182	-0.0073	-0.0462	0.0165	0.9585
29.4767	-3.7721	1.3765	-0.014287	-0.045408	-1.3971	2.15	9.2459	753.2994	-50.2527	307.8109	45.7303	747.5468	-0.0592	0.0182	-0.0073	-0.0462	0.0165	0.9585
29.4891	-3.678	-0.54717	0.13104	0.57243	-1.5508	-0.13318	12.3612	757.7549	-50.143	309.6122	44.1851	746.9899	-0.0592	0.0182	-0.0073	-0.0462	0.0165	0.9585
29.5016	-3.5418	-2.9217	0.25006	1.34	-1.655	-2.9424	15.4449	759.773	-50.1706	310.391	42.8022	744.1364	-0.0592	0.0182	-0.0073	-0.0462	0.0165	0.9585
29.514	-3.2877	-5.5679	0.27789	2.1949	-1.6128	-6.0657	18.5284	759.3579	-50.3338	310.1523	41.5569	738.9973	-0.0592	0.0182	-0.0073	-0.0462	0.0165	0.9585
29.5264	-2.7535	-8.1249	0.16298	3.0106	-1.3058	-9.0959	21.6324	756.7032	-50.6314	308.9796	40.4298	731.7738	-0.0592	0.0182	-0.0073	-0.0462	0.0165	0.9585
29.5389	-1.7801	-9.8828	-0.19063	3.5483	-0.57	-11.2036	24.7604	752.1025	-51.0848	306.9973	39.4307	722.7718	-0.0592	0.0182	-0.0073	-0.0462	0.0165	0.9585
29.5513	-0.16245	-9.7614	-0.8572	3.4417	0.7553	-11.1399	27.8877	745.8856	-51.6988	304.3404	38.5711	712.3414	-0.0592	0.0182	-0.0073	-0.0462	0.0165	0.9585
29.5637	2.2611	-6.2012	-1.9275	2.1646	2.8329	-7.073	30.9243	738.3182	-52.4725	301.1191	37.8781	700.791	-0.0592	0.0182	-0.0073	-0.0462	0.0165	0.9585
29.5761	5.579	2.7929	-3.4321	-0.9509	5.7356	3.3307	33.7517	729.5548	-53.3799	297.4027	37.3679	688.3293	-0.0592	0.0182	-0.0073	-0.0462	0.0165	0.9585
29.5886	9.6959	19.5078	-5.3463	-6.6634	9.3996	22.7547	36.2032	719.6624	-54.362	293.2175	37.0453	675.1101	-0.0592	0.0182	-0.0073	-0.0462	0.0165	0.9585
29.601	14.2261	46.1828	-7.5054	-15.707	13.4966	53.8264	38.1186	708.5026	-55.3039	288.5127	36.8701	661.081	-0.0592	0.0182	-0.0073	-0.0462	0.0165	0.9585
29.6134	18.3477	84.3743	-9.5575	-28.5738	17.3238	98.3883	39.3087	695.7439	-56.0252	283.1563	36.7585	646.0379	-0.0592	0.0182	-0.0073	-0.0462	0.0165	0.9585
29.6259	20.6178	133.9637	-10.8703	-45.1802	19.6407	156.3563	39.6612	680.8632	-56.2828	276.9444	36.5503	629.5723	-0.0592	0.0182	-0.0073	-0.0462	0.0165	0.9585
29.6383	19.1323	192.1021	-10.4975	-64.5145	18.7113	224.4789	39.0839	663.3502	-55.8089	269.6748	36.0526	611.284	-0.0592	0.0182	-0.0073	-0.0462	0.0165	0.9585
29.6507	12.9289	253.1406	-7.5314	-84.6292	13.1704	296.2222	37.6392	642.8802	-54.3781	261.225	35.0579	590.8744	-0.0592	0.0182	-0.0073	-0.0462	0.0165	0.9585
